<?xml version="1.0" encoding="utf-8"?>
<!-- Generator: Adobe Illustrator 25.0.0, SVG Export Plug-In . SVG Version: 6.00 Build 0)  -->
<svg version="1.1" id="BACKGROUND" xmlns="http://www.w3.org/2000/svg" xmlns:xlink="http://www.w3.org/1999/xlink" x="0px" y="0px"
	 viewBox="0 0 173.7 219.4" style="enable-background:new 0 0 173.7 219.4;" xml:space="preserve">
<style type="text/css">
	.st0{fill:none;stroke:#334132;stroke-miterlimit:10;}
</style>
<g>
	<g>
		<path class="st0" d="M168.9,63.9c12.6,1.9-15.2,21.1-26.4,27.1c-13.9,7.4-30.6,6.5-46.2,5.2C96.2,96.2,108,54.7,168.9,63.9z"/>
		<path class="st0" d="M171.8,66c0,0-39,29.8-75.6,30.2"/>
		<path class="st0" d="M97.2,93.8c12.8,2.7,74-28.6,74-28.6"/>
		<path class="st0" d="M170.8,64.4l-72.1,28c16.8-18.7,70.2-28.5,70.2-28.5"/>
	</g>
	<g>
		<path class="st0" d="M0.5,69.8c-1-12.7,24,10,32.3,19.7c10.4,11.8,13.2,28.3,15.6,43.9C48.4,133.3,5.4,131.2,0.5,69.8z"/>
		<path class="st0" d="M1.9,66.5c0,0,37.8,31.2,46.5,66.8"/>
		<path class="st0" d="M45.9,132.9C45.6,119.7,1.4,67.2,1.4,67.2"/>
		<path class="st0" d="M0.6,67.8l43.6,64c-22.1-12.1-43.7-62-43.7-62"/>
	</g>
	<g>
		<path class="st0" d="M35.4,11.8c2.3-13.5,22.4,16.8,28.6,29c7.6,15.1,6.2,33,4.6,49.9C68.6,90.7,24.1,77.1,35.4,11.8z"/>
		<path class="st0" d="M37.7,8.7c0,0,31.2,42.6,30.9,82.1"/>
		<path class="st0" d="M66,89.7C69.3,75.9,36.9,9.2,36.9,9.2"/>
		<path class="st0" d="M36,9.7l28.5,78.4C44.6,69.6,35.3,11.8,35.3,11.8"/>
	</g>
	<g>
		<path class="st0" d="M118.8,1.2c8.2-5.4,2.2,19.8-1.2,29.1c-4.1,11.3-14.1,19.4-23.7,26.8C93.9,57,79.2,27.3,118.8,1.2z"/>
		<path class="st0" d="M121.5,0.9c0,0-6.9,37-27.6,56.1"/>
		<path class="st0" d="M93.3,55.1c8.7-5,27.6-54.3,27.6-54.3"/>
		<path class="st0" d="M120.2,0.6L93.3,53.6c-0.1-19.3,25.4-52.3,25.4-52.3"/>
	</g>
	<g>
		<path class="st0" d="M172,137.4c6.9,7-19,6.1-28.7,4.6c-12-1.8-21.8-9.9-30.9-17.9C112.4,124.2,138.7,103.9,172,137.4z"/>
		<path class="st0" d="M172.9,140c0,0-37.6,0.6-60.5-15.9"/>
		<path class="st0" d="M114.1,123.2c6.7,7.5,58.7,16.2,58.7,16.2"/>
		<path class="st0" d="M173.1,138.6l-57.4-15.7c18.9-3.9,56.3,14.5,56.3,14.5"/>
	</g>
	<g>
		<path class="st0" d="M124.2,153.3c5.7,2.5-9.9,8-16,9.3c-7.5,1.7-15.2-0.9-22.5-3.6C85.7,159,96.6,140.9,124.2,153.3z"/>
		<path class="st0" d="M125.3,154.6c0,0-22.2,9-39.6,4.4c0,0-18.4,5.2-26.3,13.3"/>
		<path class="st0" d="M86.4,158c5.7,2.9,38.7-3.9,38.7-3.9"/>
		<path class="st0" d="M125,153.8l-37.8,3.8c10.3-6.7,36.8-4.3,36.8-4.3"/>
	</g>
	<path class="st0" d="M30.6,219.1c14.8-17.8,26.4-38.4,34.1-60.3c4.3-12.3,7.3-24.9,10.3-37.5c2.3-9.9,4.8-19.9,7.1-29.8
		c3-12.8,6.7-23.7,12.4-35.6"/>
	<path class="st0" d="M97,95.6c-10.9,4.8-21.2,18.4-23,30.1"/>
	<path class="st0" d="M73.4,127.6c3.7-11.9,0.9-26.5-4.8-37.5"/>
	<path class="st0" d="M115.1,123.3c-17.9,4-35.7,16.1-48.3,29.3"/>
	<path class="st0" d="M54.3,183.3c0.1-14-2.5-38.7-6.2-52.2"/>
</g>
</svg>
