<svg version="1.1" id="Layer_1" xmlns="http://www.w3.org/2000/svg" xmlns:xlink="http://www.w3.org/1999/xlink" x="0px" y="0px"
	 viewBox="0 0 512 366" style="enable-background:new 0 0 512 366;" xml:space="preserve">
<style type="text/css">
	.st0{fill:#334132;}
</style>
<g>
	<path class="st0" d="M293,0c73,0,146,0,219,0c0,73.7,0,147.3,0,221c-1,1.5-2.1,2.8-2.9,4.4c-9,17.8-17.9,35.7-26.8,53.5
		c-14.5,29-28.9,58-43.3,87.1c-36.7,0-73.3,0-110,0c24.3-48.5,48.6-97.1,73.4-146.6c-37.2,0-73.3,0-109.8,0c0-2.2,0-3.9,0-5.5
		c0-69.5,0-139,0-208.4C292.6,3.6,292.9,1.8,293,0z"/>
	<path class="st0" d="M0,220C0,146.8,0,73.5,0,0c73,0,146,0,219,0c0.1,1.5,0.4,3,0.4,4.5c0,70.4,0,140.9-0.1,211.3
		c0,2.5-0.7,5.3-1.8,7.6c-8.4,17.2-17,34.2-25.6,51.3c-15.3,30.5-30.6,60.9-45.9,91.3c-36.3,0-72.7,0-109,0c0.8-2,1.5-4,2.5-5.9
		c22.4-44.8,44.8-89.6,67.2-134.4c0.9-1.7,1.7-3.5,2.7-5.8c-2.1-0.1-3.5-0.3-5-0.3c-33.5,0-67,0-100.4,0C2.6,219.6,1.3,219.9,0,220z
		"/>
</g>
</svg>
